# AST/ASF file generated using VICON BodyLanguage
# -----------------------------------------------
:version 1.10
:name VICON
:units
  mass 1.0
  length 0.45
  angle deg
:documentation
   .ast/.asf automatically generated from VICON data using
   VICON BodyBuilder and BodyLanguage model FoxedUp or BRILLIANT.MOD
:root
   order TX TY TZ RX RY RZ
   axis XYZ
   position 0 0 0  
   orientation 0 0 0 
:bonedata
  begin
     id 1 
     name lhipjoint
     direction 0.578396 -0.714046 0.394458 
     length 2.21935 
     axis 0 0 0  XYZ
  end
  begin
     id 2 
     name lfemur
     direction 0.34202 -0.939693 0  
     length 6.39105  
     axis 0 0 20  XYZ
    dof rx ry rz
    limits (-160.0 20.0)
           (-70.0 70.0)
           (-60.0 70.0)
  end
  begin
     id 3 
     name ltibia
     direction 0.34202 -0.939693 0   
     length 6.99037   
     axis 0 0 20   XYZ
    dof rx
    limits (-10.0 170.0)
  end
  begin
     id 4 
     name lfoot
     direction 0.0582372 -0.160005 0.985397   
     length 2.06111   
     axis -90 7.62852e-016 20   XYZ
    dof rx rz
    limits (-45.0 90.0)
           (-70.0 20.0)
  end
  begin
     id 5 
     name ltoes
     direction 1.53556e-011 -4.21875e-011 1   
     length 1.04074   
     axis -90 7.62852e-016 20   XYZ
    dof rx
    limits (-90.0 20.0)
  end
  begin
     id 6 
     name rhipjoint
     direction -0.558179 -0.726269 0.40121   
     length 2.182  
     axis 0 0 0  XYZ 
  end
  begin
     id 7 
     name rfemur
     direction -0.34202 -0.939693 0   
     length 6.51172   
     axis 0 0 -20   XYZ
    dof rx ry rz
    limits (-160.0 20.0)
           (-70.0 70.0)
           (-70.0 60.0)
  end
  begin
     id 8 
     name rtibia
     direction -0.34202 -0.939693 0   
     length 7.02607   
     axis 0 0 -20   XYZ
    dof rx
    limits (-10.0 170.0)
 end
 begin
     id 9 
     name rfoot
     direction -0.0788856 -0.216737 0.973038   
     length 1.96734  
     axis -90 -7.62852e-016 -20   XYZ
    dof rx rz
    limits (-45.0 90.0)
           (-20.0 70.0)
  end
  begin
     id 10 
     name rtoes
     direction -1.53567e-011 -4.21783e-011 1   
     length 0.990825   
     axis -90 -7.62852e-016 -20   XYZ
    dof rx
    limits (-90.0 20.0)
  end
  begin
     id 11 
     name lowerback
     direction 0.00668177 0.999323 -0.0361741   
     length 1.7655   
     axis 0 0 0   XYZ
    dof rx ry rz
    limits (-20.0 45.0)
           (-30.0 30.0)
           (-30.0 30.0)
  end
  begin
     id 12 
     name upperback
     direction -0.00222086 0.99851 0.0545167   
     length 1.74912   
     axis 0 0 0   XYZ
    dof rx ry rz
    limits (-20.0 45.0)
           (-30.0 30.0)
           (-30.0 30.0)
  end
  begin
     id 13 
     name thorax
     direction -0.00733971 0.997496 0.0703443   
     length 1.75715   
     axis 0 0 0   XYZ
    dof rx ry rz
    limits (-20.0 45.0)
           (-30.0 30.0)
           (-30.0 30.0)
  end
  begin
     id 14 
     name lowerneck
     direction 0.0279797 0.994795 0.0979765   
     length 1.46939   
     axis 0 0 0   XYZ
    dof rx ry rz
    limits (-20.0 45.0)
           (-30.0 30.0)
           (-30.0 30.0)
  end
  begin
     id 15 
     name upperneck
     direction 0.00339187 0.976776 -0.214238   
     length 1.48018   
     axis 0 0 0   XYZ
    dof rx ry rz
    limits (-20.0 45.0)
           (-30.0 30.0)
           (-30.0 30.0)
  end
  begin
     id 16
     name head
     direction -0.00263506 0.996603 -0.0823096  
     length 1.4976  
     axis 0 0 0   XYZ
    dof rx ry rz
    limits (-20.0 45.0)
           (-30.0 30.0)
           (-30.0 30.0)
  end
  begin
     id 17 
     name lclavicle
     direction 0.894044 0.44508 -0.0508781  
     length 3.03024  
     axis 0 0 0   XYZ
    dof ry rz
    limits (-20.0 10.0)
           (0.0 20.0)
  end
  begin
     id 18 
     name lhumerus
     direction 1 -4.48961e-011 -2.39475e-018   
     length 4.4661   
     axis 180 -30 -90   XYZ
    dof rx ry rz
    limits (-60.0 90.0)
           (-90.0 90.0)
           (-90.0 90.0)
  end
  begin
     id 19
     name lradius
     direction 1 -4.48961e-011 9.29328e-028   
     length 3.41414   
     axis 180 -30 -90   XYZ
    dof rx
    limits (-10.0 170.0)
  end
  begin
     id 20
     name lwrist
     direction 1 -4.48985e-011 1.53461e-026   
     length 1.70707   
     axis -1.09697e-014 90 90   XYZ
    dof ry
    limits (-180.0 0.0)
 end
  begin
     id 21 
     name lhand
     direction 1 -4.48966e-011 3.06923e-026   
     length 0.328298   
     axis -1.95843e-014 90 90   XYZ
    dof rx rz
    limits (-90.0 90.0)
           (-45.0 45.0)
  end
  begin
     id 22 
     name lfingers
     direction 1 -4.48893e-011 6.13845e-026   
     length 0.264682   
     axis -3.91686e-014 90 90   XYZ
    dof rx
    limits (0.0 90.0)
  end
  begin
     id 23
     name lthumb
     direction 0.707107 -6.34876e-011 0.707107   
     length 0.380032   
     axis -90 45 2.85299e-015   XYZ
    dof rx rz
    limits (-45.0 45.0)
           (-45.0 45.0)
  end
  begin
     id 24 
     name rclavicle
     direction -0.936955 0.347862 -0.0332887   
     length 3.26927  
     axis 0 0 0   XYZ 
    dof ry rz
    limits (-10.0 20.0)
           (-20.0 0.0)
  end
  begin
     id 25 
     name rhumerus
     direction -1 -4.4896e-011 1.78637e-018  
     length 4.40431   
     axis 180 30 90   XYZ
    dof rx ry rz
    limits (-90.0 60.0)
           (-90.0 90.0)
           (-90.0 90.0)
  end
  begin
     id 26 
     name rradius
     direction -1 -4.48955e-011 9.34036e-027   
     length 3.04688   
     axis 180 30 90   XYZ
    dof rx
    limits (-10.0 170.0)
  end
  begin
     id 27 
     name rwrist
     direction -1 -4.49011e-011 1.53461e-026   
     length 1.52344   
     axis -1.09697e-014 -90 -90   XYZ
    dof ry
    limits (-180.0 0.0)
  end
  begin
     id 28
     name rhand
     direction -1 -4.48834e-011 3.06923e-026   
     length 0.500489   
     axis -1.95843e-014 -90 -90   XYZ
    dof rx rz
    limits (-90.0 90.0)
           (-45.0 45.0)
  end
  begin
     id 29
     name rfingers
     direction -1 -4.48967e-011 6.13845e-026   
     length 0.403507   
     axis -3.91686e-014 -90 -90   XYZ
    dof rx
    limits (0.0 90.0)
  end
  begin
     id 30
     name rthumb
     direction -0.707107 -6.34826e-011 0.707107   
     length 0.579358   
     axis -90 -45 -2.85299e-015   XYZ
    dof rx rz
    limits (-45.0 45.0)
           (-45.0 45.0)
  end
:hierarchy
  begin
    root lhipjoint rhipjoint lowerback
    lhipjoint lfemur
    lfemur ltibia
    ltibia lfoot
    lfoot ltoes
    rhipjoint rfemur
    rfemur rtibia
    rtibia rfoot
    rfoot rtoes
    lowerback upperback
    upperback thorax
    thorax lowerneck lclavicle rclavicle
    lowerneck upperneck
    upperneck head
    lclavicle lhumerus
    lhumerus lradius
    lradius lwrist
    lwrist lhand lthumb
    lhand lfingers
    rclavicle rhumerus
    rhumerus rradius
    rradius rwrist
    rwrist rhand rthumb
    rhand rfingers
  end

#!OML:ASF H:\IndianDance\Patient Classification 1\Patient 1\Session 1\dancer.ASF
:FULLY-SPECIFIED
:DEGREES
325
root -0.221591 13.9566 9.95887 -176.62 5.22742 -182.787
lowerback 11.4512 1.80421 -0.533429
upperback -9.74627 2.8452 -1.00973
thorax -17.5633 1.50713 -1.68494
lowerneck -13.9959 -0.15025 -0.557778
upperneck 7.30833 -0.863287 5.9246
head 4.4996 -0.120056 1.85756
rclavicle 6.63444e-015 3.08116e-015
rhumerus 77.6096 -17.9477 -40.2027
rradius 81.1611
rwrist -53.555
rhand -36.02 13.0466
rfingers 7.12502
rthumb -9.12914 -16.7358
lclavicle 6.63444e-015 3.08116e-015
lhumerus 81.7031 22.7552 29.2334
lradius 76.4823
lwrist 43.5986
lhand -39.2601 11.3041
lfingers 7.12502
lthumb -12.2545 40.9251
rfemur -53.6189 -19.2351 12.9589
rtibia 89.2336
rfoot -22.6917 -19.0014
rtoes 26.5033
lfemur -25.1826 21.293 -27.6456
ltibia 60.0261
lfoot -35.3869 16.0778
ltoes 14.1813
326
root -0.242753 13.9594 9.94622 -176.672 5.32324 -182.956
lowerback 11.7448 1.7824 -0.723222
upperback -9.64503 2.74055 -1.07421
thorax -17.6375 1.46554 -1.6334
lowerneck -14.0863 -0.141144 -0.559855
upperneck 7.04371 -0.849544 5.96922
head 4.43241 -0.117009 1.87166
rclavicle 1.69712e-014 -4.57205e-015
rhumerus 78.0978 -17.8421 -40.5936
rradius 80.8465
rwrist -54.0556
rhand -35.674 12.4586
rfingers 7.12502
rthumb -8.79518 -17.3381
lclavicle 1.69712e-014 -4.57205e-015
lhumerus 81.8481 22.9137 29.4465
lradius 76.5421
lwrist 43.5986
lhand -39.6049 11.7241
lfingers 7.12502
lthumb -12.5869 41.3249
rfemur -54.92 -19.0415 13.8764
rtibia 89.7425
rfoot -22.8368 -18.6471
rtoes 25.4705
lfemur -25.0046 21.2045 -27.9412
ltibia 59.844
lfoot -35.4642 16.2577
ltoes 14.503
327
root -0.263458 13.9618 9.93325 -176.705 5.44668 -183.095
lowerback 12.0221 1.76747 -0.886104
upperback -9.5421 2.65066 -1.1375
thorax -17.6968 1.42807 -1.59795
lowerneck -14.183 -0.134513 -0.548497
upperneck 6.79866 -0.845137 6.02426
head 4.37268 -0.117743 1.88617
rclavicle 9.31803e-016 -7.35503e-015
rhumerus 78.5418 -17.729 -40.9574
rradius 80.5105
rwrist -54.4417
rhand -35.3265 11.9484
rfingers 7.12502
rthumb -8.45986 -17.8622
lclavicle 9.31803e-016 -7.35503e-015
lhumerus 82.04 23.0177 29.6501
lradius 76.4892
lwrist 43.7068
lhand -39.8961 12.2501
lfingers 7.12502
lthumb -12.8676 41.8334
rfemur -56.2302 -18.792 14.8903
rtibia 90.0767
rfoot -22.8764 -18.3336
rtoes 24.1603
lfemur -24.8575 21.1385 -28.2105
ltibia 59.6833
lfoot -35.5467 16.4466
ltoes 14.7606
328
root -0.283935 13.9639 9.92002 -176.715 5.59222 -183.207
lowerback 12.2798 1.75999 -1.01961
upperback -9.43703 2.57766 -1.19617
thorax -17.7387 1.39564 -1.57661
lowerneck -14.2874 -0.132253 -0.543575
upperneck 6.57101 -0.847581 6.08591
head 4.31987 -0.121531 1.90336
rclavicle 9.18137e-015 2.5842e-015
rhumerus 78.9569 -17.6055 -41.292
rradius 80.1526
rwrist -54.7245
rhand -35.007 11.4776
rfingers 7.12502
rthumb -8.15155 -18.3452
lclavicle 9.18137e-015 2.5842e-015
lhumerus 82.2468 23.0847 29.8414
lradius 76.3464
lwrist 43.8798
lhand -40.1415 12.8417
lfingers 7.12502
lthumb -13.1042 42.4099
rfemur -57.5422 -18.4846 15.9843
rtibia 90.2268
rfoot -22.8178 -18.0381
rtoes 22.5795
lfemur -24.7467 21.0911 -28.4581
ltibia 59.5443
lfoot -35.633 16.6458
ltoes 14.97
329
root -0.303996 13.9657 9.90662 -176.703 5.75638 -183.297
lowerback 12.5195 1.76368 -1.13415
upperback -9.32875 2.52487 -1.24899
thorax -17.7637 1.371 -1.56326
lowerneck -14.3995 -0.138831 -0.551006
upperneck 6.35919 -0.860204 6.14579
head 4.27359 -0.130452 1.92133
rclavicle 1.17531e-014 -1.51076e-014
rhumerus 79.351 -17.4779 -41.5931
rradius 79.764
rwrist -54.9536
rhand -34.7069 11.0544
rfingers 7.12502
rthumb -7.86189 -18.7794
lclavicle 1.17531e-014 -1.51076e-014
lhumerus 82.4943 23.1057 30.0594
lradius 76.0767
lwrist 44.0525
lhand -40.2774 13.3792
lfingers 7.12502
lthumb -13.2352 42.939
rfemur -58.844 -18.114 17.1326
rtibia 90.1871
rfoot -22.7191 -17.7091
rtoes 20.927
lfemur -24.6706 21.0617 -28.689
ltibia 59.4249
lfoot -35.7199 16.8583
ltoes 15.1234
330
root -0.323621 13.9676 9.89312 -176.671 5.93168 -183.371
lowerback 12.7432 1.77529 -1.23531
upperback -9.21495 2.48675 -1.29358
thorax -17.7704 1.35234 -1.55062
lowerneck -14.5206 -0.151442 -0.576908
upperneck 6.15916 -0.877029 6.19925
head 4.23251 -0.141856 1.94008
rclavicle 4.48259e-014 -6.85807e-015
rhumerus 79.7362 -17.3341 -41.864
rradius 79.3421
rwrist -55.1667
rhand -34.4319 10.6921
rfingers 7.12502
rthumb -7.59646 -19.1515
lclavicle 4.48259e-014 -6.85807e-015
lhumerus 82.7544 23.0952 30.2875
lradius 75.6972
lwrist 44.1395
lhand -40.3027 13.8152
lfingers 7.12502
lthumb -13.2596 43.3734
rfemur -60.1208 -17.6805 18.3061
rtibia 89.9528
rfoot -22.5909 -17.3087
rtoes 19.2796
lfemur -24.6249 21.0459 -28.9086
ltibia 59.32
lfoot -35.8006 17.0735
ltoes 15.2537
331
root -0.342716 13.9695 9.87977 -176.619 6.10682 -183.433
lowerback 12.9554 1.79208 -1.32404
upperback -9.09588 2.45905 -1.33263
thorax -17.7622 1.33754 -1.54042
lowerneck -14.6488 -0.397175 -0.557957
upperneck 5.99445 -0.845739 6.22155
head 4.20175 0.0254393 1.95723
rclavicle -1.44181e-014 1.17283e-014
rhumerus 80.1113 -17.1724 -42.0984
rradius 78.882
rwrist -55.3808
rhand -34.1986 10.383
rfingers 7.12502
rthumb -7.37125 -19.4686
lclavicle -1.44181e-014 1.17283e-014
lhumerus 83.0242 23.0528 30.5211
lradius 75.2136
lwrist 44.0867
lhand -40.2067 14.133
lfingers 7.12502
lthumb -13.167 43.6972
rfemur -61.3645 -17.1971 19.493
rtibia 89.5228
rfoot -22.4474 -16.8604
rtoes 17.6326
lfemur -24.6103 21.0368 -29.1218
ltibia 59.2263
lfoot -35.8705 17.3135
ltoes 15.3077
332
root -0.361256 13.9717 9.86671 -176.551 6.27268 -183.492
lowerback 13.1637 1.81258 -1.40948
upperback -8.97038 2.43751 -1.36634
thorax -17.7433 1.3256 -1.52697
lowerneck -14.781 -0.428728 -0.610416
upperneck 5.80913 -0.865249 6.25223
head 4.16694 0.018004 1.97354
rclavicle 1.69464e-014 -7.8023e-015
rhumerus 80.4775 -16.9909 -42.2938
rradius 78.3748
rwrist -55.6082
rhand -33.9762 10.1335
rfingers 7.12502
rthumb -7.15657 -19.7255
lclavicle 1.69464e-014 -7.8023e-015
lhumerus 83.2918 22.9787 30.7423
lradius 74.6431
lwrist 43.8539
lhand -40.041 14.3786
lfingers 7.12502
lthumb -13.0073 43.9531
rfemur -62.5611 -16.6723 20.6625
rtibia 88.8962
rfoot -22.3487 -16.3074
rtoes 16.2633
lfemur -24.619 21.0233 -29.335
ltibia 59.1377
lfoot -35.9298 17.56
ltoes 15.364
333
root -0.37906 13.9744 9.85407 -176.469 6.42325 -183.551
lowerback 13.3717 1.83706 -1.49728
upperback -8.83881 2.42085 -1.39852
thorax -17.7166 1.31628 -1.51138
lowerneck -14.9165 -0.4658 -0.673223
upperneck 5.62927 -0.889669 6.2743
head 4.13446 0.00753626 1.98851
rclavicle 3.56135e-014 -5.51627e-015
rhumerus 80.8187 -16.7992 -42.4372
rradius 77.819
rwrist -55.8365
rhand -33.7729 9.94816
rfingers 7.12502
rthumb -6.96038 -19.9174
lclavicle 3.56135e-014 -5.51627e-015
lhumerus 83.5497 22.8784 30.9428
lradius 74.0167
lwrist 43.5168
lhand -39.8107 14.563
lfingers 7.12502
lthumb -12.7853 44.1515
rfemur -63.7018 -16.1195 21.8023
rtibia 88.074
rfoot -22.2917 -15.681
rtoes 15.1614
lfemur -24.6503 21.0048 -29.5525
ltibia 59.0539
lfoot -35.9806 17.8078
ltoes 15.4408
334
root -0.396061 13.9774 9.84197 -176.374 6.55362 -183.615
lowerback 13.5829 1.86316 -1.59232
upperback -8.70005 2.40451 -1.42957
thorax -17.6833 1.30798 -1.49024
lowerneck -15.0554 -0.506104 -0.742147
upperneck 5.45125 -0.916363 6.28859
head 4.1031 -0.00446211 2.0019
rclavicle 2.23943e-014 -1.06847e-014
rhumerus 81.1366 -16.5987 -42.5336
rradius 77.2055
rwrist -56.0322
rhand -33.5548 9.819
rfingers 7.12502
rthumb -6.74979 -20.0534
lclavicle 2.23943e-014 -1.06847e-014
lhumerus 83.7847 22.7619 31.1067
lradius 73.3635
lwrist 43.1657
lhand -39.5434 14.6971
lfingers 7.12502
lthumb -12.5276 44.3015
rfemur -64.778 -15.553 22.9072
rtibia 87.0558
rfoot -22.2883 -15.0183
rtoes 14.425
lfemur -24.7024 20.9749 -29.7775
ltibia 58.9749
lfoot -36.0244 18.0573
ltoes 15.5194
335
root -0.412144 13.9801 9.83044 -176.269 6.65911 -183.687
lowerback 13.7975 1.89024 -1.69758
upperback -8.55212 2.38687 -1.45902
thorax -17.6411 1.30032 -1.46072
lowerneck -15.1769 -0.544278 -0.839301
upperneck 5.25027 -0.933314 6.31073
head 4.06169 -0.012303 2.02288
rclavicle -2.40592e-014 2.85753e-015
rhumerus 81.4283 -16.3977 -42.573
rradius 76.5344
rwrist -56.1828
rhand -33.3282 9.72914
rfingers 7.12502
rthumb -6.53106 -20.1502
lclavicle -2.40592e-014 2.85753e-015
lhumerus 83.9953 22.6297 31.2373
lradius 72.6991
lwrist 42.8933
lhand -39.256 14.7636
lfingers 7.12502
lthumb -12.2505 44.3848
rfemur -65.7806 -14.9946 23.9869
rtibia 85.8428
rfoot -22.2836 -14.4469
rtoes 13.6938
lfemur -24.7764 20.9285 -30.0118
ltibia 58.9063
lfoot -36.0701 18.3069
ltoes 15.6009
